<svg width="30" height="22" viewBox="0 0 30 22" fill="none" xmlns="http://www.w3.org/2000/svg">
<path fill-rule="evenodd" clip-rule="evenodd" d="M13.6202 0.040602C10.1198 0.298681 6.95666 1.3771 4.44411 3.16907C0.932275 5.67378 -0.627008 9.14037 0.23114 12.5352C0.69743 14.3799 1.90723 16.1718 3.67399 17.6349C6.83657 20.2538 11.6005 21.6619 16.2576 21.3543C19.7769 21.1219 23.0102 20.0316 25.5486 18.2212C28.0868 16.4108 29.6156 14.1047 29.9415 11.5947C30.3727 8.27313 28.3984 4.87542 24.7265 2.6198C21.9479 0.912945 18.4283 -0.0241476 14.8887 0.000473138C14.4489 0.00352461 13.878 0.0215826 13.6202 0.040602ZM16.9902 1.43713C20.1931 1.7878 23.0568 2.91128 25.0339 4.59301C26.6131 5.93616 27.5982 7.51068 27.9893 9.31652C28.1339 9.98404 28.1339 11.4079 27.9893 12.0754C27.5982 13.8812 26.6131 15.4557 25.0339 16.7989C23.0422 18.4929 20.2021 19.6017 16.9316 19.962C15.9956 20.0651 13.9993 20.0651 13.0634 19.962C9.79285 19.6017 6.95273 18.4929 4.96103 16.7989C3.38188 15.4557 2.39673 13.8812 2.00563 12.0754C1.86105 11.4079 1.86105 9.98404 2.00563 9.31652C2.51084 6.9839 4.06544 4.95827 6.44061 3.53775C8.54296 2.28042 10.9447 1.57992 13.9132 1.35829C14.4063 1.32147 16.4003 1.37255 16.9902 1.43713ZM14.0734 8.14304C14.0889 11.5701 14.0904 11.6108 14.2099 11.7249C14.2764 11.7884 14.4035 11.8791 14.4926 11.9265C14.6526 12.0117 14.7095 12.0128 19.5146 12.0238L24.3749 12.035V11.3655V10.6959H20.155H15.9352V7.68628V4.67662H14.9965H14.0577L14.0734 8.14304Z" fill="black"/>
</svg>
